[
  {
    "start": 9.65,
    "duration": 0.37,
    "note": 76,
    "velocity": 105,
    "instrument": "arp3"
  },
  {
    "start": 9.70,
    "duration": 0.46,
    "note": 72,
    "velocity": 105,
    "instrument": "arp3"
  },
  {
    "start": 10.05,
    "duration": 1.03,
    "note": 74,
    "velocity": 105,
    "instrument": "arp3"
  },
  {
    "start": 10.52,
    "duration": 0.47,
    "note": 76,
    "velocity": 105,
    "instrument": "arp3"
  },
  {
    "start": 10.55,
    "duration": 0.53,
    "note": 76,
    "velocity": 105,
    "instrument": "arp3"
  },
  {
    "start": 10.20,
    "duration": 0.09,
    "note": 72,
    "velocity": 105,
    "instrument": "arp3"
  },
  {
    "start": 10.30,
    "duration": 0.18,
    "note": 72,
    "velocity": 105,
    "instrument": "arp3"
  },
  {
    "start": 10.50,
    "duration": 0.16,
    "note": 72,
    "velocity": 105,
    "instrument": "arp3"
  },
  {
    "start": 10.70,
    "duration": 0.37,
    "note": 72,
    "velocity": 105,
    "instrument": "arp3"
  },
  {
    "start": 12.60,
    "duration": 0.48,
    "note": 76,
    "velocity": 105,
    "instrument": "arp3"
  },
  {
    "start": 12.75,
    "duration": 0.73,
    "note": 74,
    "velocity": 105,
    "instrument": "arp3"
  },
  {
    "start": 12.60,
    "duration": 0.24,
    "note": 72,
    "velocity": 105,
    "instrument": "arp3"
  },
  {
    "start": 12.90,
    "duration": 0.58,
    "note": 72,
    "velocity": 105,
    "instrument": "arp3"
  },
  {
    "start": 13.10,
    "duration": 0.38,
    "note": 76,
    "velocity": 105,
    "instrument": "arp3"
  },
  {
    "start": 15.35,
    "duration": 0.53,
    "note": 74,
    "velocity": 105,
    "instrument": "arp3"
  },
  {
    "start": 15.00,
    "duration": 0.18,
    "note": 72,
    "velocity": 105,
    "instrument": "arp3"
  },
  {
    "start": 15.10,
    "duration": 0.37,
    "note": 76,
    "velocity": 105,
    "instrument": "arp3"
  },
  {
    "start": 15.20,
    "duration": 0.09,
    "note": 72,
    "velocity": 105,
    "instrument": "arp3"
  },
  {
    "start": 15.30,
    "duration": 0.58,
    "note": 72,
    "velocity": 105,
    "instrument": "arp3"
  },
  {
    "start": 15.50,
    "duration": 0.37,
    "note": 76,
    "velocity": 105,
    "instrument": "arp3"
  },
  {
    "start": 17.40,
    "duration": 0.14,
    "note": 72,
    "velocity": 105,
    "instrument": "arp3"
  },
  {
    "start": 17.57,
    "duration": 0.13,
    "note": 72,
    "velocity": 105,
    "instrument": "arp3"
  },
  {
    "start": 17.60,
    "duration": 0.68,
    "note": 76,
    "velocity": 105,
    "instrument": "arp3"
  },
  {
    "start": 17.70,
    "duration": 0.59,
    "note": 72,
    "velocity": 105,
    "instrument": "arp3"
  },
  {
    "start": 9.60,
    "duration": 0.28,
    "note": 72,
    "velocity": 105,
    "instrument": "arp1"
  },
  {
    "start": 9.91,
    "duration": 0.27,
    "note": 72,
    "velocity": 105,
    "instrument": "arp1"
  },
  {
    "start": 9.75,
    "duration": 0.28,
    "note": 74,
    "velocity": 105,
    "instrument": "arp1"
  },
  {
    "start": 10.20,
    "duration": 0.09,
    "note": 72,
    "velocity": 105,
    "instrument": "arp1"
  },
  {
    "start": 10.95,
    "duration": 0.28,
    "note": 76,
    "velocity": 105,
    "instrument": "arp1"
  },
  {
    "start": 13.80,
    "duration": 0.28,
    "note": 77,
    "velocity": 105,
    "instrument": "arp1"
  },
  {
    "start": 14.10,
    "duration": 0.28,
    "note": 77,
    "velocity": 105,
    "instrument": "arp1"
  },
  {
    "start": 13.35,
    "duration": 0.28,
    "note": 74,
    "velocity": 105,
    "instrument": "arp1"
  },
  {
    "start": 13.65,
    "duration": 0.28,
    "note": 74,
    "velocity": 105,
    "instrument": "arp1"
  },
  {
    "start": 13.95,
    "duration": 0.28,
    "note": 74,
    "velocity": 105,
    "instrument": "arp1"
  },
  {
    "start": 14.25,
    "duration": 0.28,
    "note": 74,
    "velocity": 105,
    "instrument": "arp1"
  },
  {
    "start": 15.75,
    "duration": 0.28,
    "note": 76,
    "velocity": 105,
    "instrument": "arp1"
  },
  {
    "start": 18.60,
    "duration": 0.28,
    "note": 77,
    "velocity": 105,
    "instrument": "arp1"
  },
  {
    "start": 18.15,
    "duration": 0.28,
    "note": 74,
    "velocity": 105,
    "instrument": "arp1"
  },
  {
    "start": 18.45,
    "duration": 0.28,
    "note": 74,
    "velocity": 105,
    "instrument": "arp1"
  },
  {
    "start": 18.75,
    "duration": 0.28,
    "note": 74,
    "velocity": 105,
    "instrument": "arp1"
  },
  {
    "start": 18.90,
    "duration": 0.28,
    "note": 77,
    "velocity": 105,
    "instrument": "arp1"
  },
  {
    "start": 19.05,
    "duration": 0.28,
    "note": 74,
    "velocity": 105,
    "instrument": "arp1"
  },
  {
    "start": 20.55,
    "duration": 0.28,
    "note": 76,
    "velocity": 105,
    "instrument": "arp1"
  },
  {
    "start": 22.35,
    "duration": 0.28,
    "note": 74,
    "velocity": 105,
    "instrument": "arp1"
  },
  {
    "start": 22.95,
    "duration": 0.28,
    "note": 74,
    "velocity": 105,
    "instrument": "arp1"
  },
  {
    "start": 23.25,
    "duration": 0.28,
    "note": 74,
    "velocity": 105,
    "instrument": "arp1"
  },
  {
    "start": 23.55,
    "duration": 0.28,
    "note": 74,
    "velocity": 105,
    "instrument": "arp1"
  },
  {
    "start": 23.40,
    "duration": 0.28,
    "note": 77,
    "velocity": 105,
    "instrument": "arp1"
  },
  {
    "start": 23.70,
    "duration": 0.28,
    "note": 77,
    "velocity": 105,
    "instrument": "arp1"
  },
  {
    "start": 22.35,
    "duration": 0.28,
    "note": 74,
    "velocity": 105,
    "instrument": "arp1"
  },
  {
    "start": 23.10,
    "duration": 0.28,
    "note": 72,
    "velocity": 105,
    "instrument": "arp1"
  },

//  11 sec



  {
    "start": 0.00,
    "duration": 0.28,
    "note": 65,
    "velocity": 105,
    "instrument": "arp2"
  },
  {
    "start": 0.30,
    "duration": 0.58,
    "note": 65,
    "velocity": 105,
    "instrument": "arp2"
  },
  {
    "start": 0.62,
    "duration": 0.26,
    "note": 72,
    "velocity": 105,
    "instrument": "arp2"
  },
  {
    "start": 0.90,
    "duration": 0.26,
    "note": 72,
    "velocity": 105,
    "instrument": "arp2"
  },
  {
    "start": 1.22,
    "duration": 0.21,
    "note": 77,
    "velocity": 105,
    "instrument": "arp2"
  },
  {
    "start": 1.50,
    "duration": 0.28,
    "note": 77,
    "velocity": 105,
    "instrument": "arp2"
  },
  {
    "start": 1.80,
    "duration": 0.28,
    "note": 72,
    "velocity": 105,
    "instrument": "arp2"
  },
  {
    "start": 2.10,
    "duration": 0.28,
    "note": 72,
    "velocity": 105,
    "instrument": "arp2"
  },
  {
    "start": 2.40,
    "duration": 0.28,
    "note": 65,
    "velocity": 105,
    "instrument": "arp2"
  },
  {
    "start": 2.70,
    "duration": 0.28,
    "note": 65,
    "velocity": 105,
    "instrument": "arp2"
  },
  {
    "start": 3.00,
    "duration": 0.28,
    "note": 72,
    "velocity": 105,
    "instrument": "arp2"
  },
  {
    "start": 3.30,
    "duration": 0.28,
    "note": 72,
    "velocity": 105,
    "instrument": "arp2"
  },
  {
    "start": 3.60,
    "duration": 0.28,
    "note": 77,
    "velocity": 105,
    "instrument": "arp2"
  },
  {
    "start": 3.90,
    "duration": 0.28,
    "note": 77,
    "velocity": 105,
    "instrument": "arp2"
  },
  {
    "start": 4.20,
    "duration": 0.28,
    "note": 72,
    "velocity": 105,
    "instrument": "arp2"
  },
  {
    "start": 4.50,
    "duration": 0.28,
    "note": 72,
    "velocity": 105,
    "instrument": "arp2"
  },
  {
    "start": 4.80,
    "duration": 0.28,
    "note": 65,
    "velocity": 105,
    "instrument": "arp2"
  },
  {
    "start": 5.10,
    "duration": 0.28,
    "note": 65,
    "velocity": 105,
    "instrument": "arp2"
  },
  {
    "start": 5.40,
    "duration": 0.28,
    "note": 72,
    "velocity": 105,
    "instrument": "arp2"
  },
  {
    "start": 5.70,
    "duration": 0.28,
    "note": 72,
    "velocity": 105,
    "instrument": "arp2"
  },
  {
    "start": 6.00,
    "duration": 0.28,
    "note": 77,
    "velocity": 105,
    "instrument": "arp2"
  },
  {
    "start": 6.30,
    "duration": 0.28,
    "note": 77,
    "velocity": 105,
    "instrument": "arp2"
  },
  {
    "start": 6.60,
    "duration": 0.28,
    "note": 72,
    "velocity": 105,
    "instrument": "arp2"
  },
  {
    "start": 6.90,
    "duration": 0.28,
    "note": 72,
    "velocity": 105,
    "instrument": "arp2"
  },
  {
    "start": 7.20,
    "duration": 0.28,
    "note": 65,
    "velocity": 105,
    "instrument": "arp2"
  },
  {
    "start": 7.50,
    "duration": 0.28,
    "note": 65,
    "velocity": 105,
    "instrument": "arp2"
  },
  {
    "start": 7.80,
    "duration": 0.28,
    "note": 72,
    "velocity": 105,
    "instrument": "arp2"
  },
  {
    "start": 8.10,
    "duration": 0.28,
    "note": 72,
    "velocity": 105,
    "instrument": "arp2"
  },
  {
    "start": 8.40,
    "duration": 0.28,
    "note": 77,
    "velocity": 105,
    "instrument": "arp2"
  },
  {
    "start": 8.70,
    "duration": 0.28,
    "note": 77,
    "velocity": 105,
    "instrument": "arp2"
  },
  {
    "start": 9.00,
    "duration": 0.28,
    "note": 72,
    "velocity": 105,
    "instrument": "arp2"
  },
  {
    "start": 9.30,
    "duration": 0.28,
    "note": 72,
    "velocity": 105,
    "instrument": "arp2"
  },
  {
    "start": 9.60,
    "duration": 0.28,
    "note": 65,
    "velocity": 105,
    "instrument": "arp2"
  },
  {
    "start": 9.90,
    "duration": 0.28,
    "note": 65,
    "velocity": 105,
    "instrument": "arp2"
  },
  {
    "start": 10.20,
    "duration": 0.28,
    "note": 72,
    "velocity": 105,
    "instrument": "arp2"
  },
  {
    "start": 10.50,
    "duration": 0.28,
    "note": 72,
    "velocity": 105,
    "instrument": "arp2"
  },
  {
    "start": 10.80,
    "duration": 0.28,
    "note": 77,
    "velocity": 105,
    "instrument": "arp2"
  },
  {
    "start": 11.10,
    "duration": 0.28,
    "note": 77,
    "velocity": 105,
    "instrument": "arp2"
  },
  {
    "start": 11.40,
    "duration": 0.28,
    "note": 72,
    "velocity": 105,
    "instrument": "arp2"
  },
  {
    "start": 11.70,
    "duration": 0.28,
    "note": 72,
    "velocity": 105,
    "instrument": "arp2"
  },
  {
    "start": 12.00,
    "duration": 0.28,
    "note": 65,
    "velocity": 105,
    "instrument": "arp2"
  },
  {
    "start": 12.30,
    "duration": 0.28,
    "note": 65,
    "velocity": 105,
    "instrument": "arp2"
  },
  {
    "start": 12.60,
    "duration": 0.28,
    "note": 72,
    "velocity": 105,
    "instrument": "arp2"
  },
  {
    "start": 12.90,
    "duration": 0.28,
    "note": 72,
    "velocity": 105,
    "instrument": "arp2"
  },
  {
    "start": 13.20,
    "duration": 0.28,
    "note": 77,
    "velocity": 105,
    "instrument": "arp2"
  },
  {
    "start": 13.50,
    "duration": 0.28,
    "note": 77,
    "velocity": 105,
    "instrument": "arp2"
  },
  {
    "start": 13.80,
    "duration": 0.28,
    "note": 72,
    "velocity": 105,
    "instrument": "arp2"
  },
  {
    "start": 14.10,
    "duration": 0.28,
    "note": 72,
    "velocity": 105,
    "instrument": "arp2"
  },
  {
    "start": 14.40,
    "duration": 0.28,
    "note": 65,
    "velocity": 105,
    "instrument": "arp2"
  },
  {
    "start": 14.70,
    "duration": 0.28,
    "note": 65,
    "velocity": 105,
    "instrument": "arp2"
  },
  {
    "start": 15.00,
    "duration": 0.28,
    "note": 72,
    "velocity": 105,
    "instrument": "arp2"
  },
  {
    "start": 15.30,
    "duration": 0.28,
    "note": 72,
    "velocity": 105,
    "instrument": "arp2"
  },
  {
    "start": 15.60,
    "duration": 0.28,
    "note": 77,
    "velocity": 105,
    "instrument": "arp2"
  },
  {
    "start": 15.90,
    "duration": 0.28,
    "note": 77,
    "velocity": 105,
    "instrument": "arp2"
  },
  {
    "start": 16.20,
    "duration": 0.28,
    "note": 72,
    "velocity": 105,
    "instrument": "arp2"
  },
  {
    "start": 16.50,
    "duration": 0.28,
    "note": 72,
    "velocity": 105,
    "instrument": "arp2"
  },
  {
    "start": 16.80,
    "duration": 0.28,
    "note": 65,
    "velocity": 105,
    "instrument": "arp2"
  },
  {
    "start": 17.10,
    "duration": 0.28,
    "note": 65,
    "velocity": 105,
    "instrument": "arp2"
  },
  {
    "start": 17.40,
    "duration": 0.28,
    "note": 72,
    "velocity": 105,
    "instrument": "arp2"
  },
  {
    "start": 17.70,
    "duration": 0.28,
    "note": 72,
    "velocity": 105,
    "instrument": "arp2"
  },
  {
    "start": 18.00,
    "duration": 0.28,
    "note": 77,
    "velocity": 105,
    "instrument": "arp2"
  },
  {
    "start": 18.30,
    "duration": 0.28,
    "note": 77,
    "velocity": 105,
    "instrument": "arp2"
  },
  {
    "start": 18.60,
    "duration": 0.28,
    "note": 72,
    "velocity": 105,
    "instrument": "arp2"
  },
  {
    "start": 18.90,
    "duration": 0.28,
    "note": 72,
    "velocity": 105,
    "instrument": "arp2"
  },
  {
    "start": 19.20,
    "duration": 0.28,
    "note": 65,
    "velocity": 105,
    "instrument": "arp2"
  },
  {
    "start": 19.50,
    "duration": 0.28,
    "note": 65,
    "velocity": 105,
    "instrument": "arp2"
  },
  {
    "start": 20.20,
    "duration": 0.28,
    "note": 72,
    "velocity": 105,
    "instrument": "arp2"
  }
]